<svg width="94" height="96" viewBox="0 0 94 96" fill="none" xmlns="http://www.w3.org/2000/svg">
<g filter="url(#filter0_d_1_4032)">
<path d="M38.0788 13.3398L36.0271 13.8895L35.5803 12.1711L37.6193 11.6248C38.0427 11.5113 38.3733 11.3138 38.611 11.0323C38.853 10.7496 38.9963 10.3867 39.0409 9.94356C39.0887 9.49506 39.0331 8.97438 38.8743 8.38154L38.7671 7.98138C38.6479 7.53675 38.4991 7.15908 38.3205 6.84838C38.145 6.5323 37.9426 6.28474 37.713 6.1057C37.4824 5.92242 37.2247 5.80765 36.94 5.7614C36.6595 5.71401 36.3562 5.734 36.0302 5.82136L33.9722 6.3728L33.5109 4.65145L35.5689 4.10001C36.1957 3.93208 36.7984 3.88632 37.3771 3.96272C37.9589 4.03375 38.4937 4.21723 38.9815 4.51316C39.4724 4.80373 39.8942 5.19222 40.2469 5.67865C40.6027 6.15971 40.8686 6.72842 41.0444 7.38477L41.1483 7.77224C41.323 8.42436 41.3771 9.0498 41.3106 9.64856C41.2484 10.2462 41.0794 10.793 40.8038 11.2889C40.5283 11.7848 40.159 12.2106 39.696 12.5661C39.2361 12.9162 38.697 13.1741 38.0788 13.3398ZM34.8258 4.29914L37.3039 13.5474L35.0744 14.1448L32.5963 4.89653L34.8258 4.29914Z" fill="black"/>
<path d="M55.3617 11.0986L55.13 12.8589L50.0707 12.1928L50.3025 10.4325L55.3617 11.0986ZM52.1354 2.80748L50.8857 12.3001L48.5973 11.9989L49.847 2.50621L52.1354 2.80748ZM55.2316 7.04879L55.0076 8.75043L50.6003 8.1702L50.8243 6.46856L55.2316 7.04879ZM56.3993 3.36883L56.1667 5.13566L51.0878 4.46702L51.3204 2.70019L56.3993 3.36883Z" fill="black"/>
<path d="M67.5715 16.7692L66.6837 18.3068L62.4923 15.8869L63.38 14.3493L67.5715 16.7692ZM67.9914 8.00608L63.2041 16.2979L61.2052 15.1438L65.9925 6.85201L67.9914 8.00608Z" fill="black"/>
<path d="M81.4808 20.0322L73.8848 25.8608L72.4837 24.0349L80.0797 18.2063L81.4808 20.0322Z" fill="black"/>
<path d="M82.4504 37.3201L83.0461 39.5433C82.3945 39.6861 81.7805 39.6645 81.2042 39.4786C80.6279 39.2926 80.1267 38.9549 79.7005 38.4654C79.2797 37.9791 78.9672 37.3548 78.763 36.5926C78.5973 35.9743 78.553 35.3939 78.63 34.8514C78.7081 34.313 78.8966 33.8223 79.1954 33.3791C79.4954 32.9402 79.8989 32.5575 80.4059 32.231C80.9142 31.9087 81.5155 31.6546 82.21 31.4685L82.7118 31.334C83.4062 31.148 84.0552 31.0716 84.6587 31.1051C85.2676 31.1416 85.8123 31.2771 86.2926 31.5115C86.7783 31.7489 87.189 32.0791 87.5248 32.5021C87.8605 32.925 88.1066 33.4286 88.2632 34.013C88.4788 34.8175 88.5169 35.5358 88.3776 36.1677C88.2383 36.7995 87.9575 37.3354 87.5353 37.7753C87.1173 38.2141 86.596 38.5467 85.9713 38.7731L85.3756 36.5499C85.7206 36.4484 85.9948 36.3114 86.1982 36.1389C86.4058 35.9653 86.5371 35.744 86.5922 35.4751C86.6472 35.2062 86.622 34.8748 86.5164 34.481C86.4427 34.2058 86.3278 33.9801 86.1717 33.8041C86.0156 33.6281 85.8093 33.5018 85.5528 33.4253C85.2963 33.3488 84.9832 33.3238 84.6136 33.3502C84.2493 33.3797 83.8216 33.4603 83.3304 33.5919L82.8159 33.7298C82.3247 33.8614 81.9134 34.0033 81.582 34.1557C81.2507 34.308 80.9925 34.4793 80.8075 34.6696C80.6224 34.8598 80.5048 35.0729 80.4545 35.3088C80.4096 35.5477 80.428 35.8197 80.5097 36.1245C80.6005 36.4633 80.73 36.735 80.8983 36.9395C81.0708 37.1429 81.2842 37.2786 81.5384 37.3467C81.7969 37.4136 82.1009 37.4047 82.4504 37.3201Z" fill="black"/>
<path d="M89.0472 51.6538L79.5546 50.4041L79.855 48.1222L89.3476 49.3719L89.0472 51.6538Z" fill="black"/>
<path d="M77.6862 67.7275L77.3502 67.5335C76.7162 67.1675 76.1982 66.7494 75.7963 66.2795C75.396 65.8155 75.1105 65.3191 74.94 64.7903C74.7732 64.2638 74.722 63.7255 74.7865 63.1755C74.8547 62.6277 75.0423 62.088 75.3491 61.5565C75.6582 61.0212 76.034 60.5851 76.4765 60.2483C76.9206 59.9175 77.4134 59.6908 77.955 59.5681C78.4982 59.4514 79.0719 59.4486 79.6761 59.5595C80.2819 59.6763 80.9018 59.9178 81.5358 60.2839L81.8718 60.4779C82.5059 60.8439 83.0249 61.26 83.4291 61.7262C83.831 62.1962 84.1164 62.6926 84.2854 63.2153C84.4559 63.7441 84.5071 64.2824 84.4389 64.8302C84.3722 65.384 84.1844 65.9286 83.8753 66.4639C83.5685 66.9954 83.193 67.4266 82.7489 67.7574C82.3064 68.0942 81.8135 68.3209 81.2703 68.4376C80.7309 68.5564 80.1572 68.5593 79.5493 68.4462C78.9413 68.3331 78.3203 68.0936 77.6862 67.7275ZM78.5208 65.5061L78.8682 65.7067C79.2782 65.9434 79.6597 66.1156 80.0127 66.2232C80.3672 66.3368 80.6903 66.3866 80.9818 66.3727C81.2733 66.3588 81.5303 66.2819 81.7528 66.142C81.9769 66.0082 82.1624 65.8141 82.3092 65.5597C82.4627 65.2939 82.5413 65.0306 82.5452 64.7696C82.5529 64.5108 82.4888 64.2535 82.3529 63.9979C82.217 63.7423 82.0112 63.4893 81.7356 63.2391C81.4615 62.9948 81.1194 62.7543 80.7094 62.5175L80.362 62.317C79.9558 62.0824 79.5765 61.9065 79.2241 61.7891C78.8733 61.6777 78.5514 61.6259 78.2582 61.6339C77.9629 61.6456 77.7032 61.7184 77.4791 61.8523C77.2529 61.9899 77.063 62.1916 76.9096 62.4574C76.7627 62.7118 76.6873 62.9694 76.6834 63.2304C76.6796 63.4914 76.7475 63.7508 76.8872 64.0087C77.0246 64.2703 77.2293 64.5251 77.5012 64.7732C77.7747 65.0273 78.1145 65.2716 78.5208 65.5061Z" fill="black"/>
<path d="M71.7977 79.5477L69.9665 80.9528L66.1595 75.9914C65.7058 75.4001 65.445 74.8046 65.377 74.2047C65.3117 73.6083 65.4216 73.0349 65.7066 72.4846C65.9917 71.9343 66.4351 71.4283 67.0368 70.9666C67.6315 70.5103 68.235 70.213 68.8473 70.0747C69.4561 69.9391 70.0435 69.9774 70.6097 70.1895C71.175 70.4077 71.6845 70.8125 72.1382 71.4038L75.9452 76.3652L74.1088 77.7743L70.3018 72.8129C70.0616 72.4999 69.8203 72.2789 69.5777 72.1501C69.3378 72.0247 69.0963 71.9835 68.853 72.0265C68.6097 72.0695 68.3646 72.1858 68.1176 72.3752C67.8672 72.5674 67.6915 72.7741 67.5904 72.9953C67.4894 73.2165 67.4701 73.4578 67.5326 73.7193C67.5978 73.9843 67.7505 74.2733 67.9907 74.5863L71.7977 79.5477Z" fill="black"/>
<path d="M54.651 79.638C54.6896 79.782 54.7454 79.9055 54.8184 80.0085C54.8925 80.1157 55.0003 80.2048 55.1419 80.2758C55.2835 80.3468 55.4758 80.4041 55.719 80.4479C55.9591 80.497 56.2681 80.5323 56.646 80.5535C57.0888 80.5801 57.5213 80.6276 57.9436 80.696C58.367 80.7686 58.7576 80.8796 59.1152 81.0288C59.4741 81.1823 59.7817 81.3903 60.0382 81.6529C60.2957 81.9198 60.4801 82.2607 60.5913 82.6757C60.698 83.0737 60.7049 83.4554 60.6122 83.8206C60.5206 84.1901 60.346 84.5296 60.0886 84.8392C59.828 85.1541 59.4976 85.4287 59.0975 85.663C58.6985 85.9015 58.2428 86.0894 57.7304 86.2267C57.0529 86.4082 56.424 86.4497 55.8439 86.351C55.2606 86.2576 54.765 86.0341 54.3571 85.6805C53.9461 85.3322 53.6623 84.8659 53.5057 84.2815L55.7225 83.6875C55.7849 83.9204 55.8886 84.1128 56.0337 84.2645C56.1745 84.4174 56.3538 84.5191 56.5716 84.5697C56.7894 84.6203 57.0422 84.607 57.3302 84.5298C57.6097 84.455 57.8333 84.3496 58.0012 84.2139C58.1691 84.0781 58.2824 83.9252 58.3412 83.7552C58.4012 83.5893 58.4084 83.4217 58.3631 83.2523C58.3256 83.1126 58.2535 82.9958 58.1466 82.9018C58.0367 82.8133 57.8966 82.7396 57.7266 82.6808C57.5523 82.6231 57.3494 82.5776 57.1181 82.5443C56.8826 82.5121 56.6222 82.4888 56.3369 82.4745C55.8037 82.4494 55.3205 82.3906 54.8872 82.2979C54.4508 82.2106 54.0684 82.0793 53.74 81.904C53.4086 81.7342 53.1337 81.5128 52.9154 81.24C52.6928 80.9683 52.5293 80.6377 52.4249 80.2481C52.3137 79.8331 52.2955 79.4431 52.3702 79.0782C52.4448 78.7133 52.6024 78.3783 52.843 78.0733C53.0846 77.7725 53.3997 77.5088 53.7883 77.2822C54.1769 77.0555 54.6295 76.873 55.1461 76.7345C55.6204 76.6074 56.1042 76.5414 56.5975 76.5362C57.0878 76.5365 57.5527 76.6116 57.9923 76.7616C58.433 76.9158 58.8183 77.1598 59.1483 77.4935C59.4751 77.8325 59.7118 78.2752 59.8581 78.8214L57.6223 79.4205C57.5497 79.1495 57.4524 78.9305 57.3305 78.7635C57.2086 78.5964 57.0624 78.4745 56.892 78.3976C56.7228 78.3249 56.5297 78.2904 56.3129 78.2941C56.0971 78.302 55.858 78.3411 55.5954 78.4114C55.3117 78.4874 55.0938 78.5889 54.9418 78.7159C54.7909 78.8471 54.6933 78.9913 54.6492 79.1483C54.6062 79.3096 54.6068 79.4729 54.651 79.638Z" fill="black"/>
<path d="M26.2241 81.9632L31.0114 73.6714L33.0103 74.8255L28.223 83.1173L26.2241 81.9632ZM24.9933 76.6511L25.8811 75.1135L29.6739 77.3033L28.7861 78.8409L24.9933 76.6511ZM22.6762 79.9148L23.5672 78.3715L27.6847 80.7487L26.7936 82.292L22.6762 79.9148Z" fill="black"/>
<path d="M14.3669 64.5339L14.6747 64.2977C15.2556 63.852 15.84 63.5334 16.428 63.3419C17.0099 63.1496 17.5777 63.0759 18.1315 63.1206C18.6818 63.1681 19.1987 63.3268 19.6821 63.5968C20.1621 63.8695 20.589 64.2493 20.9626 64.7362C21.3389 65.2266 21.598 65.7407 21.7398 66.2784C21.8755 66.8153 21.8963 67.3574 21.8024 67.9047C21.7023 68.4512 21.4854 68.9823 21.1517 69.498C20.8119 70.013 20.3516 70.4933 19.7708 70.939L19.463 71.1752C18.8821 71.6208 18.2991 71.9412 17.7137 72.1361C17.1257 72.3276 16.5579 72.4014 16.0103 72.3574C15.4565 72.3126 14.9396 72.1539 14.4596 71.8812C13.9734 71.6077 13.5422 71.2258 13.1659 70.7354C12.7923 70.2485 12.5376 69.7366 12.402 69.1997C12.2601 68.662 12.2393 68.1199 12.3393 67.5734C12.436 67.0296 12.6528 66.4984 12.99 65.98C13.3271 65.4616 13.7861 64.9796 14.3669 64.5339ZM16.0999 66.1549L15.7816 66.3991C15.406 66.6874 15.101 66.9739 14.8665 67.2589C14.6258 67.543 14.4562 67.8224 14.3575 68.097C14.2588 68.3717 14.2315 68.6385 14.2755 68.8976C14.3134 69.1559 14.4218 69.4015 14.6006 69.6345C14.7874 69.878 15.0006 70.0515 15.2403 70.1549C15.4764 70.261 15.7386 70.3003 16.0268 70.2725C16.315 70.2448 16.6274 70.1515 16.9641 69.9926C17.2947 69.8329 17.6478 69.6089 18.0234 69.3207L18.3417 69.0765C18.7138 68.7909 19.0215 68.5078 19.2648 68.2272C19.502 67.9457 19.673 67.6681 19.7778 67.3943C19.88 67.1169 19.9121 66.8491 19.8742 66.5909C19.8336 66.3291 19.7199 66.0766 19.5331 65.8331C19.3543 65.6001 19.1451 65.4318 18.9055 65.3284C18.6658 65.2249 18.4002 65.1884 18.1085 65.2187C17.8142 65.2457 17.5004 65.3372 17.1672 65.4935C16.8278 65.6489 16.472 65.8694 16.0999 66.1549Z" fill="black"/>
<path d="M9.37375 50.5212L9.74851 50.4208C10.4557 50.2313 11.1175 50.1606 11.7341 50.2087C12.3452 50.2537 12.898 50.4029 13.3925 50.6561C13.8828 50.9106 14.2996 51.255 14.643 51.6895C14.9821 52.1251 15.2311 52.6393 15.3899 53.2322C15.5499 53.8292 15.5925 54.4033 15.5178 54.9543C15.4377 55.5023 15.2495 56.0111 14.9533 56.4808C14.6516 56.9474 14.248 57.3551 13.7424 57.7039C13.2314 58.0496 12.6223 58.3172 11.9151 58.5067L11.5404 58.6071C10.8332 58.7966 10.1719 58.8694 9.55652 58.8255C8.93999 58.7774 8.38717 58.6282 7.89804 58.378C7.40354 58.1248 6.98674 57.7803 6.64763 57.3447C6.30314 56.906 6.05091 56.3881 5.89092 55.791C5.73207 55.1982 5.6927 54.6278 5.77281 54.0798C5.84755 53.5288 6.03572 53.02 6.33733 52.5534C6.6347 52.0879 7.03832 51.6802 7.54819 51.3303C8.05806 50.9804 8.66658 50.7107 9.37375 50.5212ZM10.3544 52.682L9.96695 52.7858C9.50962 52.9084 9.11811 53.0564 8.79244 53.2299C8.46139 53.4003 8.19772 53.5935 8.00143 53.8095C7.80515 54.0255 7.67779 54.2615 7.61935 54.5178C7.55555 54.7709 7.56166 55.0393 7.63769 55.323C7.71711 55.6194 7.84773 55.8613 8.02953 56.0485C8.2071 56.237 8.43431 56.3735 8.71116 56.4582C8.98801 56.5429 9.31238 56.5762 9.68427 56.5583C10.0508 56.5372 10.4627 56.4654 10.9201 56.3429L11.3075 56.2391C11.7606 56.1176 12.1533 55.9739 12.4854 55.8077C12.8123 55.6384 13.0765 55.4474 13.2781 55.2345C13.4787 55.0174 13.6108 54.7822 13.6746 54.5291C13.7373 54.2718 13.7289 53.9949 13.6495 53.6985C13.5735 53.4148 13.4446 53.1793 13.2628 52.992C13.0809 52.8047 12.8495 52.6693 12.5684 52.5857C12.2862 52.498 11.9613 52.4625 11.5936 52.4793C11.2206 52.493 10.8075 52.5606 10.3544 52.682Z" fill="black"/>
<path d="M14.4155 41.1982L14.1382 43.3041L12.3796 43.0593L12.6552 40.9665C12.7124 40.5318 12.6564 40.1508 12.4873 39.8235C12.3187 39.4917 12.0383 39.2205 11.646 39.0096C11.2499 38.7939 10.7476 38.646 10.1391 38.5658L9.72833 38.5118C9.27196 38.4517 8.86608 38.4447 8.51069 38.4907C8.15153 38.5319 7.84532 38.6242 7.59207 38.7678C7.33448 38.9107 7.12983 39.1049 6.97815 39.3502C6.82703 39.5912 6.72944 39.879 6.68538 40.2137L6.40728 42.3261L4.64045 42.0935L4.91855 39.9811C5.00324 39.3378 5.19161 38.7635 5.48366 38.258C5.77194 37.7477 6.14611 37.3238 6.60618 36.9864C7.06247 36.6441 7.58281 36.4031 8.16719 36.2634C8.7478 36.1187 9.37496 36.0907 10.0487 36.1794L10.4464 36.2318C11.1157 36.3199 11.7143 36.5093 12.242 36.7998C12.7703 37.0861 13.2108 37.4514 13.5635 37.8958C13.9162 38.3402 14.1682 38.8442 14.3195 39.408C14.467 39.9669 14.499 40.5637 14.4155 41.1982ZM4.81813 40.7439L14.3108 41.9936L14.0095 44.282L4.51685 43.0323L4.81813 40.7439Z" fill="black"/>
<path d="M17.2402 25.8109C17.1111 25.7363 16.9843 25.6885 16.8599 25.6673C16.7317 25.6438 16.5924 25.6571 16.4421 25.707C16.2918 25.7569 16.1152 25.8524 15.9123 25.9934C15.7078 26.1284 15.4644 26.322 15.1822 26.5741C14.8502 26.8685 14.5108 27.1407 14.1639 27.391C13.8131 27.639 13.4585 27.8367 13.1 27.9841C12.7378 28.1293 12.3732 28.1997 12.0061 28.1954C11.6353 28.1888 11.2639 28.0781 10.8918 27.8633C10.5349 27.6573 10.2601 27.3923 10.0675 27.0685C9.87097 26.7424 9.75432 26.3789 9.7175 25.978C9.67907 25.5711 9.7185 25.1433 9.83577 24.6947C9.94925 24.2439 10.1386 23.7888 10.4038 23.3294C10.7546 22.7219 11.1699 22.248 11.65 21.9076C12.1284 21.5611 12.6368 21.3687 13.1753 21.3303C13.7122 21.286 14.2427 21.415 14.7666 21.7175L13.6191 23.705C13.4103 23.5845 13.2009 23.5218 12.9911 23.5171C12.7834 23.5086 12.5847 23.5634 12.3949 23.6817C12.2051 23.7999 12.0357 23.9881 11.8867 24.2463C11.742 24.4968 11.6583 24.7295 11.6356 24.9442C11.6129 25.1588 11.6409 25.3471 11.7196 25.509C11.7944 25.6686 11.9078 25.7923 12.0597 25.88C12.185 25.9523 12.3186 25.9839 12.4606 25.9747C12.6009 25.9596 12.752 25.9127 12.9139 25.834C13.0779 25.7516 13.2535 25.6403 13.4406 25.5003C13.63 25.3565 13.8305 25.1888 14.0424 24.9973C14.4371 24.638 14.8204 24.3379 15.1924 24.097C15.5627 23.8502 15.9259 23.6726 16.282 23.5644C16.6365 23.4501 16.9874 23.4123 17.3347 23.4508C17.6842 23.4855 18.0336 23.6037 18.3829 23.8054C18.7549 24.0202 19.0436 24.283 19.2488 24.5939C19.4541 24.9048 19.5795 25.253 19.6251 25.6388C19.6669 26.0223 19.6305 26.4316 19.516 26.8667C19.4015 27.3017 19.2106 27.7508 18.9432 28.214C18.6977 28.6392 18.4023 29.0281 18.0571 29.3805C17.7102 29.727 17.3284 30.0026 16.9115 30.2074C16.4908 30.41 16.0458 30.51 15.5765 30.5073C15.1057 30.4987 14.6254 30.353 14.1356 30.0702L15.293 28.0656C15.536 28.2059 15.7596 28.292 15.9639 28.3239C16.1682 28.3558 16.3578 28.3387 16.5327 28.2726C16.7037 28.2043 16.8646 28.0922 17.0154 27.9363C17.1624 27.7781 17.3038 27.5814 17.4397 27.346C17.5866 27.0916 17.6689 26.8658 17.6866 26.6685C17.7005 26.469 17.6676 26.2981 17.5877 26.1558C17.5041 26.0113 17.3883 25.8964 17.2402 25.8109Z" fill="black"/>
</g>
<defs>
<filter id="filter0_d_1_4032" x="0.516846" y="2.5061" width="92.8307" height="92.6465" filterUnits="userSpaceOnUse" color-interpolation-filters="sRGB">
<feFlood flood-opacity="0" result="BackgroundImageFix"/>
<feColorMatrix in="SourceAlpha" type="matrix" values="0 0 0 0 0 0 0 0 0 0 0 0 0 0 0 0 0 0 127 0" result="hardAlpha"/>
<feOffset dy="4"/>
<feGaussianBlur stdDeviation="2"/>
<feComposite in2="hardAlpha" operator="out"/>
<feColorMatrix type="matrix" values="0 0 0 0 0 0 0 0 0 0 0 0 0 0 0 0 0 0 0.25 0"/>
<feBlend mode="normal" in2="BackgroundImageFix" result="effect1_dropShadow_1_4032"/>
<feBlend mode="normal" in="SourceGraphic" in2="effect1_dropShadow_1_4032" result="shape"/>
</filter>
</defs>
</svg>
