<svg width="41" height="41" viewBox="0 0 41 41" fill="none" xmlns="http://www.w3.org/2000/svg">
<circle cx="20.5" cy="20.5" r="20" fill="white" stroke="#101A24"/>
<path d="M20 17.4062C18 17.4062 16.4062 19.0312 16.4062 21C16.4062 23 18 24.5938 20 24.5938C21.9688 24.5938 23.5938 23 23.5938 21C23.5938 19.0312 21.9688 17.4062 20 17.4062ZM20 23.3438C18.7188 23.3438 17.6562 22.3125 17.6562 21C17.6562 19.7188 18.6875 18.6875 20 18.6875C21.2812 18.6875 22.3125 19.7188 22.3125 21C22.3125 22.3125 21.2812 23.3438 20 23.3438ZM24.5625 17.2812C24.5625 16.8125 24.1875 16.4375 23.7188 16.4375C23.25 16.4375 22.875 16.8125 22.875 17.2812C22.875 17.75 23.25 18.125 23.7188 18.125C24.1875 18.125 24.5625 17.75 24.5625 17.2812ZM26.9375 18.125C26.875 17 26.625 16 25.8125 15.1875C25 14.375 24 14.125 22.875 14.0625C21.7188 14 18.25 14 17.0938 14.0625C15.9688 14.125 15 14.375 14.1562 15.1875C13.3438 16 13.0938 17 13.0312 18.125C12.9688 19.2812 12.9688 22.75 13.0312 23.9062C13.0938 25.0312 13.3438 26 14.1562 26.8438C15 27.6562 15.9688 27.9062 17.0938 27.9688C18.25 28.0312 21.7188 28.0312 22.875 27.9688C24 27.9062 25 27.6562 25.8125 26.8438C26.625 26 26.875 25.0312 26.9375 23.9062C27 22.75 27 19.2812 26.9375 18.125ZM25.4375 25.125C25.2188 25.75 24.7188 26.2188 24.125 26.4688C23.1875 26.8438 21 26.75 20 26.75C18.9688 26.75 16.7812 26.8438 15.875 26.4688C15.25 26.2188 14.7812 25.75 14.5312 25.125C14.1562 24.2188 14.25 22.0312 14.25 21C14.25 20 14.1562 17.8125 14.5312 16.875C14.7812 16.2812 15.25 15.8125 15.875 15.5625C16.7812 15.1875 18.9688 15.2812 20 15.2812C21 15.2812 23.1875 15.1875 24.125 15.5625C24.7188 15.7812 25.1875 16.2812 25.4375 16.875C25.8125 17.8125 25.7188 20 25.7188 21C25.7188 22.0312 25.8125 24.2188 25.4375 25.125Z" fill="#101A24"/>
</svg>
