<svg width="41" height="41" viewBox="0 0 41 41" fill="none" xmlns="http://www.w3.org/2000/svg">
<circle cx="20.5" cy="20.5" r="20" fill="white" stroke="#101A24"/>
<path d="M26.3438 17.75C26.9688 17.2812 27.5312 16.7188 27.9688 16.0625C27.4062 16.3125 26.75 16.5 26.0938 16.5625C26.7812 16.1562 27.2812 15.5312 27.5312 14.75C26.9062 15.125 26.1875 15.4062 25.4688 15.5625C24.8438 14.9062 24 14.5312 23.0625 14.5312C21.25 14.5312 19.7812 16 19.7812 17.8125C19.7812 18.0625 19.8125 18.3125 19.875 18.5625C17.1562 18.4062 14.7188 17.0938 13.0938 15.125C12.8125 15.5938 12.6562 16.1562 12.6562 16.7812C12.6562 17.9062 13.2188 18.9062 14.125 19.5C13.5938 19.4688 13.0625 19.3438 12.625 19.0938V19.125C12.625 20.7188 13.75 22.0312 15.25 22.3438C15 22.4062 14.6875 22.4688 14.4062 22.4688C14.1875 22.4688 14 22.4375 13.7812 22.4062C14.1875 23.7188 15.4062 24.6562 16.8438 24.6875C15.7188 25.5625 14.3125 26.0938 12.7812 26.0938C12.5 26.0938 12.25 26.0625 12 26.0312C13.4375 26.9688 15.1562 27.5 17.0312 27.5C23.0625 27.5 26.3438 22.5312 26.3438 18.1875C26.3438 18.0312 26.3438 17.9062 26.3438 17.75Z" fill="#101A24"/>
</svg>
